<?xml version="1.0" standalone="no"?><!DOCTYPE svg PUBLIC "-//W3C//DTD SVG 1.1//EN" "http://www.w3.org/Graphics/SVG/1.1/DTD/svg11.dtd"><svg t="1659721916623" class="icon" viewBox="0 0 1024 1024" version="1.1" xmlns="http://www.w3.org/2000/svg" p-id="23667" xmlns:xlink="http://www.w3.org/1999/xlink" width="200" height="200"><defs><style type="text/css">@font-face { font-family: feedback-iconfont; src: url("//at.alicdn.com/t/font_1031158_u69w8yhxdu.woff2?t=1630033759944") format("woff2"), url("//at.alicdn.com/t/font_1031158_u69w8yhxdu.woff?t=1630033759944") format("woff"), url("//at.alicdn.com/t/font_1031158_u69w8yhxdu.ttf?t=1630033759944") format("truetype"); }
</style></defs><path d="M435.053714 443.757714c3.876571 0 7.68-1.536 10.605714-4.461714 2.998857-2.925714 4.461714-6.802286 4.461714-10.678857L449.974857 115.492571c0-1.901714-1.170286-3.803429-3.072-4.608C445.001143 110.08 442.806857 110.592 441.417143 111.981714l-105.837714 105.325714-141.897143-141.312c-2.706286-2.706286-6.509714-4.388571-10.678857-4.388571-4.169143 0-7.899429 1.682286-10.678857 4.388571L75.995429 171.958857C73.216 174.665143 71.533714 178.468571 71.533714 182.637714c0 4.169143 1.609143 7.972571 4.461714 10.678857l141.750857 141.238857-102.838857 102.4c-1.462857 1.389714-1.828571 3.510857-1.097143 5.485714 0.731429 1.974857 2.633143 3.218286 4.608 3.218286L435.053714 443.757714 435.053714 443.757714zM435.053714 577.536c3.876571 0 7.68 1.536 10.678857 4.461714 2.925714 2.925714 4.461714 6.802286 4.461714 10.678857l-0.073143 315.757714c0 1.901714-1.170286 3.949714-3.072 4.608-1.974857 0.804571-4.096 0.292571-5.558857-1.097143l-105.837714-105.472-141.897143 141.458286c-2.706286 2.706286-6.509714 4.461714-10.678857 4.461714-4.169143 0-7.899429-1.682286-10.678857-4.461714L76.068571 851.968c-2.779429-2.706286-4.461714-6.582857-4.461714-10.678857s1.682286-7.899429 4.461714-10.752l141.750857-141.238857L114.907429 586.825143c-1.462857-1.462857-1.828571-3.584-1.170286-5.558857 0.877714-1.755429 2.706286-2.998857 4.608-3.145143L435.053714 577.536 435.053714 577.536zM589.019429 443.757714c-4.022857 0-7.68-1.536-10.678857-4.461714S573.878857 432.493714 573.878857 428.617143l0.146286-313.124571c0-1.901714 1.243429-3.803429 3.145143-4.608 1.828571-0.804571 4.096-0.292571 5.412571 1.097143l105.764571 105.325714 141.897143-141.312c2.706286-2.706286 6.509714-4.388571 10.678857-4.388571 4.242286 0 7.753143 1.682286 10.678857 4.388571l96.548571 95.963429c2.633143 2.706286 4.315429 6.509714 4.315429 10.678857 0 4.169143-1.609143 7.972571-4.461714 10.678857l-141.824 141.312 102.838857 102.4c1.536 1.389714 1.901714 3.510857 1.170286 5.485714-0.877714 1.974857-2.633143 3.145143-4.608 3.145143L589.019429 443.757714 589.019429 443.757714zM588.873143 577.536c-3.876571 0-7.606857 1.536-10.678857 4.461714-2.925714 2.925714-4.534857 6.802286-4.534857 10.678857l0.146286 315.757714c0 1.901714 1.243429 3.949714 3.145143 4.608 1.828571 0.877714 4.096 0.292571 5.412571-1.097143l105.837714-105.472 141.824 141.458286c2.852571 2.706286 6.582857 4.461714 10.678857 4.461714s7.826286-1.682286 10.678857-4.461714l96.402286-96.036571c2.633143-2.706286 4.461714-6.582857 4.461714-10.678857s-1.682286-7.899429-4.461714-10.678857L806.034286 689.444571l102.985143-102.4c1.536-1.536 1.901714-3.584 1.243429-5.558857-0.950857-1.828571-2.633143-3.072-4.608-3.145143L588.873143 577.536 588.873143 577.536z" p-id="23668"></path></svg>