<?xml version="1.0" standalone="no"?><!DOCTYPE svg PUBLIC "-//W3C//DTD SVG 1.1//EN" "http://www.w3.org/Graphics/SVG/1.1/DTD/svg11.dtd"><svg t="1659721829999" class="icon" viewBox="0 0 1024 1024" version="1.1" xmlns="http://www.w3.org/2000/svg" p-id="22743" xmlns:xlink="http://www.w3.org/1999/xlink" width="200" height="200"><defs><style type="text/css">@font-face { font-family: feedback-iconfont; src: url("//at.alicdn.com/t/font_1031158_u69w8yhxdu.woff2?t=1630033759944") format("woff2"), url("//at.alicdn.com/t/font_1031158_u69w8yhxdu.woff?t=1630033759944") format("woff"), url("//at.alicdn.com/t/font_1031158_u69w8yhxdu.ttf?t=1630033759944") format("truetype"); }
</style></defs><path d="M512 102.4a409.6 409.6 0 1 1 0 819.2 409.6 409.6 0 0 1 0-819.2z m199.5776 198.3488a23.808 23.808 0 0 0-26.2656-5.376l-239.6672 97.28a97.28 97.28 0 0 0-52.992 52.992l-97.28 239.6672a23.808 23.808 0 0 0 5.376 26.2656l11.6736 11.6736a23.808 23.808 0 0 0 26.2656 5.376l239.6672-97.28a97.28 97.28 0 0 0 52.992-52.992l97.28-239.6672a23.808 23.808 0 0 0-5.376-26.2656z" p-id="22744"></path></svg>