<?xml version="1.0" standalone="no"?><!DOCTYPE svg PUBLIC "-//W3C//DTD SVG 1.1//EN" "http://www.w3.org/Graphics/SVG/1.1/DTD/svg11.dtd"><svg t="1660040810370" class="icon" viewBox="0 0 1024 1024" version="1.1" xmlns="http://www.w3.org/2000/svg" p-id="11145" xmlns:xlink="http://www.w3.org/1999/xlink" width="200" height="200"><defs><style type="text/css">@font-face { font-family: feedback-iconfont; src: url("//at.alicdn.com/t/font_1031158_u69w8yhxdu.woff2?t=1630033759944") format("woff2"), url("//at.alicdn.com/t/font_1031158_u69w8yhxdu.woff?t=1630033759944") format("woff"), url("//at.alicdn.com/t/font_1031158_u69w8yhxdu.ttf?t=1630033759944") format("truetype"); }
</style></defs><path d="M668.702971 528.372899c98.064456 65.036225 186.577373 199.044312 186.577373 384.090818l47.974641 0c9.04091 0 16.040325 6.999414 16.040325 16.040325l0 31.934317c0 9.04091-6.999414 16.040325-16.040325 16.040325L167.153998 976.478683c-9.04091 0-16.040325-6.999414-16.040325-16.040325l0-31.934317c0-9.04091 6.999414-16.040325 16.040325-16.040325l47.974641 0c0-185.045483 88.512916-319.054593 186.577373-384.090818-98.064456-65.036225-186.577373-199.044312-186.577373-384.090818l-47.974641 0c-9.04091 0-16.040325-6.999414-16.040325-16.040325L151.113673 96.30744c0-9.04091 6.999414-16.040325 16.040325-16.040325l736.100988 0c9.04091 0 16.040325 6.999414 16.040325 16.040325l0 31.934317c0 9.04091-6.999414 16.040325-16.040325 16.040325l-47.974641 0C855.279321 329.327564 766.766404 463.336674 668.702971 528.372899zM279.143605 144.282081c0 72.983221 16.477276 137.508817 42.507116 192.044898l427.107541 0c26.028816-54.537104 42.507116-119.062699 42.507116-192.044898L279.143605 144.282081zM592.730673 560.37987 477.67831 560.37987c-66.494437 26.976398-132.98785 95.512331-170.026418 192.044898l455.105199 0C725.718523 655.892201 659.224086 587.357292 592.730673 560.37987z" p-id="11146"></path></svg>