<?xml version="1.0" standalone="no"?><!DOCTYPE svg PUBLIC "-//W3C//DTD SVG 1.1//EN" "http://www.w3.org/Graphics/SVG/1.1/DTD/svg11.dtd"><svg t="1659895854275" class="icon" viewBox="0 0 1024 1024" version="1.1" xmlns="http://www.w3.org/2000/svg" p-id="2890" xmlns:xlink="http://www.w3.org/1999/xlink" width="200" height="200"><defs><style type="text/css">@font-face { font-family: feedback-iconfont; src: url("//at.alicdn.com/t/font_1031158_u69w8yhxdu.woff2?t=1630033759944") format("woff2"), url("//at.alicdn.com/t/font_1031158_u69w8yhxdu.woff?t=1630033759944") format("woff"), url("//at.alicdn.com/t/font_1031158_u69w8yhxdu.ttf?t=1630033759944") format("truetype"); }
</style></defs><path d="M415.93 223.79c0-52.98 43.004-95.984 95.984-95.984s95.984 43.004 95.984 95.984-43.004 95.984-95.984 95.984-95.984-43.003-95.984-95.984zM415.93 511.742c0-52.98 43.004-95.984 95.984-95.984s95.984 43.004 95.984 95.984-43.004 95.984-95.984 95.984-95.984-43.004-95.984-95.984zM415.93 799.866c0-52.98 43.004-95.984 95.984-95.984s95.984 43.003 95.984 95.984-43.004 95.983-95.984 95.983-95.984-43.175-95.984-95.983z" p-id="2891"></path></svg>