<?xml version="1.0" standalone="no"?><!DOCTYPE svg PUBLIC "-//W3C//DTD SVG 1.1//EN" "http://www.w3.org/Graphics/SVG/1.1/DTD/svg11.dtd"><svg t="1660818102142" class="icon" viewBox="0 0 1024 1024" version="1.1" xmlns="http://www.w3.org/2000/svg" p-id="4151" xmlns:xlink="http://www.w3.org/1999/xlink" width="200" height="200"><defs><style type="text/css">@font-face { font-family: feedback-iconfont; src: url("//at.alicdn.com/t/font_1031158_u69w8yhxdu.woff2?t=1630033759944") format("woff2"), url("//at.alicdn.com/t/font_1031158_u69w8yhxdu.woff?t=1630033759944") format("woff"), url("//at.alicdn.com/t/font_1031158_u69w8yhxdu.ttf?t=1630033759944") format("truetype"); }
</style></defs><path d="M853.333333 625.777778a113.777778 113.777778 0 1 1 0-227.555556 113.777778 113.777778 0 0 1 0 227.555556z m-341.333333 0a113.777778 113.777778 0 1 1 0-227.555556 113.777778 113.777778 0 0 1 0 227.555556zM170.666667 625.777778a113.777778 113.777778 0 1 1 0-227.555556 113.777778 113.777778 0 0 1 0 227.555556z" p-id="4152"></path><path d="M853.333333 625.777778a113.777778 113.777778 0 1 1 0-227.555556 113.777778 113.777778 0 0 1 0 227.555556z m-341.333333 0a113.777778 113.777778 0 1 1 0-227.555556 113.777778 113.777778 0 0 1 0 227.555556zM170.666667 625.777778a113.777778 113.777778 0 1 1 0-227.555556 113.777778 113.777778 0 0 1 0 227.555556z" p-id="4153"></path></svg>