<?xml version="1.0" standalone="no"?><!DOCTYPE svg PUBLIC "-//W3C//DTD SVG 1.1//EN" "http://www.w3.org/Graphics/SVG/1.1/DTD/svg11.dtd"><svg t="1659108151521" class="icon" viewBox="0 0 1024 1024" version="1.1" xmlns="http://www.w3.org/2000/svg" p-id="9679" xmlns:xlink="http://www.w3.org/1999/xlink" width="200" height="200"><defs><style type="text/css">@font-face { font-family: feedback-iconfont; src: url("//at.alicdn.com/t/font_1031158_u69w8yhxdu.woff2?t=1630033759944") format("woff2"), url("//at.alicdn.com/t/font_1031158_u69w8yhxdu.woff?t=1630033759944") format("woff"), url("//at.alicdn.com/t/font_1031158_u69w8yhxdu.ttf?t=1630033759944") format("truetype"); }
</style></defs><path d="M512 640m-42.666667 0a42.666667 42.666667 0 1 0 85.333334 0 42.666667 42.666667 0 1 0-85.333334 0Z" p-id="9680"></path><path d="M725.333333 341.333333h-42.666666V260.693333a170.666667 170.666667 0 1 0-341.333334 0V341.333333H298.666667a128 128 0 0 0-128 128v341.333334a128 128 0 0 0 128 128h426.666666a128 128 0 0 0 128-128v-341.333334a128 128 0 0 0-128-128z m-298.666666-80.64A87.893333 87.893333 0 0 1 512 170.666667a87.893333 87.893333 0 0 1 85.333333 90.026666V341.333333h-170.666666zM512 768a128 128 0 1 1 128-128 128 128 0 0 1-128 128z" p-id="9681"></path></svg>