<?xml version="1.0" standalone="no"?><!DOCTYPE svg PUBLIC "-//W3C//DTD SVG 1.1//EN" "http://www.w3.org/Graphics/SVG/1.1/DTD/svg11.dtd"><svg t="1659721682408" class="icon" viewBox="0 0 1024 1024" version="1.1" xmlns="http://www.w3.org/2000/svg" p-id="19399" xmlns:xlink="http://www.w3.org/1999/xlink" width="200" height="200"><defs><style type="text/css">@font-face { font-family: feedback-iconfont; src: url("//at.alicdn.com/t/font_1031158_u69w8yhxdu.woff2?t=1630033759944") format("woff2"), url("//at.alicdn.com/t/font_1031158_u69w8yhxdu.woff?t=1630033759944") format("woff"), url("//at.alicdn.com/t/font_1031158_u69w8yhxdu.ttf?t=1630033759944") format("truetype"); }
</style></defs><path d="M694.838857 475.428571c0-141.129143-114.870857-256-256-256s-256 114.870857-256 256 114.870857 256 256 256 256-114.870857 256-256z m292.571429 475.428572c0 40.009143-33.133714 73.142857-73.142857 73.142857a71.68 71.68 0 0 1-51.419429-21.723429l-195.986286-195.437714a401.225143 401.225143 0 0 1-227.986285 70.838857c-222.281143 0-402.285714-180.004571-402.285715-402.285714s180.004571-402.285714 402.285715-402.285714 402.285714 180.004571 402.285714 402.285714c0 81.152-24.576 161.133714-70.838857 227.986286l195.986285 195.986285c13.129143 13.129143 21.138286 32 21.138286 51.419429z" fill="" p-id="19400"></path></svg>